<?xml version="1.0" encoding="UTF-8"?>
<svg version="1.1" xmlns="http://www.w3.org/2000/svg" width="95" height="19">
<path d="M0 0 C0.99 0 1.98 0 3 0 C3.33 1.32 3.66 2.64 4 4 C6.97 4.495 6.97 4.495 10 5 C9.690625 5.515625 9.38125 6.03125 9.0625 6.5625 C7.70940713 9.66665423 7.38640576 12.65115007 7 16 C5.39125 15.7215625 5.39125 15.7215625 3.75 15.4375 C0.59608454 15.0695432 -1.09818492 14.95534657 -4 16 C-4.12375 14.9275 -4.2475 13.855 -4.375 12.75 C-4.89643936 9.62136385 -5.40088254 7.66519576 -7 5 C-5.02 4.67 -3.04 4.34 -1 4 C-0.67 2.68 -0.34 1.36 0 0 Z " fill="#FF6F1F" transform="translate(65,1)"/>
<path d="M0 0 C0.99 0 1.98 0 3 0 C3.33 1.32 3.66 2.64 4 4 C6.97 4.495 6.97 4.495 10 5 C9.690625 5.515625 9.38125 6.03125 9.0625 6.5625 C7.70940713 9.66665423 7.38640576 12.65115007 7 16 C5.39125 15.7215625 5.39125 15.7215625 3.75 15.4375 C0.59608454 15.0695432 -1.09818492 14.95534657 -4 16 C-4.12375 14.9275 -4.2475 13.855 -4.375 12.75 C-4.89643936 9.62136385 -5.40088254 7.66519576 -7 5 C-5.02 4.67 -3.04 4.34 -1 4 C-0.67 2.68 -0.34 1.36 0 0 Z " fill="#FF6F1F" transform="translate(46,1)"/>
<path d="M0 0 C0.99 0 1.98 0 3 0 C3.33 1.32 3.66 2.64 4 4 C6.97 4.495 6.97 4.495 10 5 C9.690625 5.515625 9.38125 6.03125 9.0625 6.5625 C7.70940713 9.66665423 7.38640576 12.65115007 7 16 C5.39125 15.7215625 5.39125 15.7215625 3.75 15.4375 C0.59608454 15.0695432 -1.09818492 14.95534657 -4 16 C-4.12375 14.9275 -4.2475 13.855 -4.375 12.75 C-4.89643936 9.62136385 -5.40088254 7.66519576 -7 5 C-5.02 4.67 -3.04 4.34 -1 4 C-0.67 2.68 -0.34 1.36 0 0 Z " fill="#FF6F1F" transform="translate(27,1)"/>
<path d="M0 0 C0.99 0 1.98 0 3 0 C3.33 1.32 3.66 2.64 4 4 C6.97 4.495 6.97 4.495 10 5 C9.690625 5.515625 9.38125 6.03125 9.0625 6.5625 C7.70940713 9.66665423 7.38640576 12.65115007 7 16 C5.39125 15.7215625 5.39125 15.7215625 3.75 15.4375 C0.59608454 15.0695432 -1.09818492 14.95534657 -4 16 C-4.12375 14.9275 -4.2475 13.855 -4.375 12.75 C-4.89643936 9.62136385 -5.40088254 7.66519576 -7 5 C-5.02 4.67 -3.04 4.34 -1 4 C-0.67 2.68 -0.34 1.36 0 0 Z " fill="#FF6F1F" transform="translate(8,1)"/>
<path d="M0 0 C0.99 0 1.98 0 3 0 C3.33 1.32 3.66 2.64 4 4 C6.97 4.495 6.97 4.495 10 5 C9.690625 5.515625 9.38125 6.03125 9.0625 6.5625 C7.70940713 9.66665423 7.38640576 12.65115007 7 16 C5.39125 15.7215625 5.39125 15.7215625 3.75 15.4375 C0.59608454 15.0695432 -1.09818492 14.95534657 -4 16 C-4.12375 14.9275 -4.2475 13.855 -4.375 12.75 C-4.89643936 9.62136385 -5.40088254 7.66519576 -7 5 C-5.02 4.67 -3.04 4.34 -1 4 C-0.67 2.68 -0.34 1.36 0 0 Z M1 3 C-0.32 4.65 -1.64 6.3 -3 8 C-2.34 9.32 -1.68 10.64 -1 12 C0.65 12 2.3 12 4 12 C4.66 10.35 5.32 8.7 6 7 C5.360625 6.896875 4.72125 6.79375 4.0625 6.6875 C3.381875 6.460625 2.70125 6.23375 2 6 C1.67 5.01 1.34 4.02 1 3 Z " fill="#FF701F" transform="translate(84,1)"/>
<path d="M0 0 C0.66 0.33 1.32 0.66 2 1 C2 1.66 2 2.32 2 3 C3.32 3 4.64 3 6 3 C5.34 5.31 4.68 7.62 4 10 C1.69 10 -0.62 10 -3 10 C-3.66 7.69 -4.32 5.38 -5 3 C-3.68 3 -2.36 3 -1 3 C-0.67 2.01 -0.34 1.02 0 0 Z " fill="#FF633B" transform="translate(66,4)"/>
<path d="M0 0 C0.66 0.33 1.32 0.66 2 1 C2 1.66 2 2.32 2 3 C3.32 3 4.64 3 6 3 C5.34 5.31 4.68 7.62 4 10 C1.69 10 -0.62 10 -3 10 C-3.66 7.69 -4.32 5.38 -5 3 C-3.68 3 -2.36 3 -1 3 C-0.67 2.01 -0.34 1.02 0 0 Z " fill="#FF633B" transform="translate(47,4)"/>
<path d="M0 0 C0.66 0.33 1.32 0.66 2 1 C2 1.66 2 2.32 2 3 C3.32 3 4.64 3 6 3 C5.34 5.31 4.68 7.62 4 10 C1.69 10 -0.62 10 -3 10 C-3.66 7.69 -4.32 5.38 -5 3 C-3.68 3 -2.36 3 -1 3 C-0.67 2.01 -0.34 1.02 0 0 Z " fill="#FF633B" transform="translate(28,4)"/>
<path d="M0 0 C0.66 0.33 1.32 0.66 2 1 C2 1.66 2 2.32 2 3 C3.32 3 4.64 3 6 3 C5.34 5.31 4.68 7.62 4 10 C1.69 10 -0.62 10 -3 10 C-3.66 7.69 -4.32 5.38 -5 3 C-3.68 3 -2.36 3 -1 3 C-0.67 2.01 -0.34 1.02 0 0 Z " fill="#FF633B" transform="translate(9,4)"/>
</svg>
